<?xml version="1.0" standalone="no"?><!DOCTYPE svg PUBLIC "-//W3C//DTD SVG 1.1//EN" "http://www.w3.org/Graphics/SVG/1.1/DTD/svg11.dtd"><svg t="1680190788793" class="icon" viewBox="0 0 1024 1024" version="1.1" xmlns="http://www.w3.org/2000/svg" p-id="17923" xmlns:xlink="http://www.w3.org/1999/xlink" width="128" height="128"><path d="M442.556322 72.974713c-2.354023 28.248276-5.885057 83.567816-5.885058 123.586207 0 62.381609-4.708046 81.213793-31.77931 115.347126-29.425287 40.018391-34.133333 41.195402-105.931034 41.195402-78.85977 0-89.452874-9.416092-64.735633-56.496551 42.372414-81.213793 43.549425-178.905747 2.354023-178.905748-82.390805 0-131.825287 230.694253-116.524138 549.664368 4.708046 85.921839 8.23908 102.4 42.372414 149.48046 21.186207 28.248276 37.664368 56.496552 37.664368 62.381609 0 4.708046 15.301149 27.071264 32.956322 48.257471 40.018391 47.08046 125.94023 76.505747 193.029885 65.912644 55.31954-9.416092 52.965517-29.425287-5.885058-45.903448-23.54023-7.062069-55.31954-22.363218-69.443678-35.310345-15.301149-12.947126-37.664368-28.248276-49.434482-35.310345-12.947126-5.885057-24.717241-18.832184-28.248276-27.071264-3.531034-12.947126 16.478161-15.301149 98.868965-14.124138 57.673563 1.177011 149.48046-3.531034 204.8-10.593104 243.641379-30.602299 224.809195-30.602299 215.393104-5.885057-10.593103 28.248276-68.266667 83.567816-98.868966 92.983908-11.770115 4.708046-22.363218 11.770115-22.363218 16.478161 0 5.885057-16.478161 16.478161-35.310345 24.717241-23.54023 9.416092-35.310345 22.363218-32.956322 34.133334 5.885057 28.248276 51.788506 29.425287 96.514943 2.354023 21.186207-14.124138 47.08046-24.717241 56.496551-24.717242 9.416092 0 27.071264-10.593103 37.664368-22.363218 11.770115-12.947126 36.487356-29.425287 55.31954-36.487356 20.009195-9.416092 34.133333-23.54023 34.133334-36.487357s4.708046-22.363218 10.593103-22.363218c10.593103 0 52.965517-140.064368 44.726437-149.48046-3.531034-2.354023-1.177011-21.186207 3.531034-40.018391 15.301149-52.965517-40.018391-346.041379-71.797701-381.351724-5.885057-5.885057-10.593103-20.009195-10.593103-31.77931C859.218391 223.632184 775.650575 94.16092 746.225287 69.443678c-23.54023-18.832184-51.788506-3.531034-51.788505 28.248276 0 15.301149 21.186207 69.443678 47.080459 120.055172 29.425287 61.204598 42.372414 97.691954 34.133334 105.931035-18.832184 18.832184-143.595402 9.416092-155.365518-12.947127-8.23908-15.301149-12.947126-16.478161-20.009195-3.531034-8.23908 11.770115-12.947126 11.770115-29.425287-1.177011-30.602299-24.717241-40.018391-51.788506-52.965518-141.24138-10.593103-77.682759-37.664368-141.241379-60.027586-141.241379-4.708046 0-11.770115 22.363218-15.301149 49.434483z m118.878161 316.616092c54.142529 35.310345 60.027586 36.487356 154.188506 29.425287 91.806897-5.885057 96.514943-4.708046 96.514942 18.832184 0 30.602299-31.77931 55.31954-70.62069 56.496552-17.655172 0-35.310345 4.708046-41.195402 9.416092-17.655172 16.478161-194.206897 52.965517-247.172414 52.965517-145.949425-1.177011-257.765517-34.133333-250.703448-71.797701 2.354023-15.301149 21.186207-22.363218 68.266667-27.071265 75.328736-9.416092 173.02069-49.434483 200.091954-81.213793 23.54023-30.602299 24.717241-29.425287 90.629885 12.947127zM835.678161 627.347126c0 56.496552-11.770115 67.089655-101.222989 89.452874-56.496552 15.301149-486.105747 18.832184-500.229885 4.708046-4.708046-4.708046-10.593103-28.248276-12.947126-50.611494-3.531034-40.018391-2.354023-41.195402 37.664368-38.84138 175.374713 9.416092 307.2 2.354023 417.83908-24.717241C842.74023 568.496552 835.678161 567.31954 835.678161 627.347126z" p-id="17924" fill="#1296db"></path><path d="M300.137931 129.471264c-3.531034 5.885057-1.177011 11.770115 4.708046 11.770115 7.062069 0 12.947126-5.885057 12.947126-11.770115 0-7.062069-2.354023-11.770115-4.708046-11.770115-3.531034 0-9.416092 4.708046-12.947126 11.770115z" p-id="17925" fill="#1296db"></path></svg>